<?xml version="1.0" encoding="utf-8"?>
<!-- Generator: Adobe Illustrator 19.2.0, SVG Export Plug-In . SVG Version: 6.00 Build 0)  -->
<svg version="1.1" id="Layer_1" xmlns="http://www.w3.org/2000/svg" xmlns:xlink="http://www.w3.org/1999/xlink" x="0px" y="0px"
	 viewBox="0 0 470.1 135.3" style="enable-background:new 0 0 470.1 135.3;" xml:space="preserve">
<style type="text/css">
	.st0{fill:#E8303F;}
</style>
<g>
	<path class="st0" d="M246.6,47.1c0,1.3,0,2.3,0,3.3c0,25,0,49.9,0,74.9c0,1.1,0,2.3-0.2,3.3c-0.8,3.9-4.1,6.5-8.4,6.5
		c-5.8,0-11.5,0-17.3,0c-7,0-14.1-0.1-21.1,0c-5.6,0.1-9.2-4-9.2-9.1c0.1-25.3,0.1-50.6,0.1-75.8c0-1,0-2,0-3.2
		c-1.1-0.1-1.9-0.1-2.6-0.1c-20.2,0-40.5,0-60.7,0c-1.5,0-2.7,0.4-3.9,1.4c-3.4,3-7,5.8-10.6,8.9c0.6,0.8,1.1,1.5,1.6,2.1
		c17.7,21.2,35.3,42.4,53,63.6c0.8,0.9,1.5,1.9,2.1,2.9c2.2,4,0.4,7.8-3.9,8.9c-1.1,0.3-2.2,0.4-3.3,0.4c-15.2,0-30.4,0-45.6,0.1
		c-5.1,0-9.2-1.8-12.5-5.9c-10.3-12.6-20.8-25.1-31.3-37.6c-0.6-0.7-1.2-1.4-1.9-2.2c-0.6,0.6-1.1,0.9-1.6,1.4
		c-3.9,3.9-7.8,7.8-11.8,11.7c-1.1,1-1.5,2.1-1.5,3.6c0.1,6.6-0.1,13.3,0.1,19.9c0.2,5.6-4.1,9.2-9.1,9.1c-12.6-0.1-25.3-0.1-37.9,0
		C3.4,135.3,0,131,0,126.1C0.1,87.3,0.1,48.6,0,9.9C0,6,2.2,2.3,5.9,1.3C6.8,1.1,7.7,1,8.5,1c13,0,26.1,0,39.1,0
		c5.1,0,8.4,3.4,8.4,8.4c0,11,0,22.1,0,33.1c0,0.9,0,1.9,0,3c1.3-0.1,1.7-0.9,2.3-1.4c7.7-7.7,15.4-15.4,23.1-23
		c5.8-5.8,11.6-11.5,17.3-17.3c1.9-2,4-2.8,6.8-2.8c51.6-0.2,103.2-0.4,154.8-0.6c13.5-0.1,27,0,40.6-0.3c4.9-0.1,8.5,1.8,11.7,5
		c1.9,1.9,3.5,4.2,5,6.4c14.1,20.8,28.1,41.6,42.1,62.4c0.5,0.7,1,1.4,1.7,2.4c0.8-1.1,1.4-1.9,1.9-2.8c14-20.8,28-41.5,42-62.3
		c1.4-2,2.9-4,4.5-5.9c2.8-3.2,6.5-4.9,10.8-4.9c13.7,0,27.4-0.1,41-0.1c1.3,0,2.6,0.1,3.8,0.5c3.3,1,4.9,3.6,4.5,7
		c-0.2,2.1-1.2,3.9-2.4,5.7c-10.2,15-20.3,30.1-30.5,45.1c-16.2,23.9-32.3,47.8-48.4,71.8c-2.2,3.3-4.9,4.9-8.9,4.8
		c-12.2-0.2-24.3-0.2-36.5,0c-4.1,0.1-6.9-1.5-9.1-4.9c-6.9-10.5-14-20.8-21-31.3c-11.4-16.8-22.7-33.7-34.1-50.5
		c-1-1.5-2.1-2.2-4.1-2.2c-8.7,0.3-17.4,0.3-26.2,0.5C248.2,46.9,247.6,47,246.6,47.1z"/>
</g>
</svg>
